<svg xmlns="http://www.w3.org/2000/svg" xmlns:xlink="http://www.w3.org/1999/xlink" width="500" zoomAndPan="magnify" viewBox="0 0 375 299.999988" height="400" preserveAspectRatio="xMidYMid meet" version="1.0"><defs><g/><clipPath id="id1"><path d="M 53 38.761719 L 200.691406 38.761719 L 200.691406 137 L 53 137 Z M 53 38.761719 " clip-rule="nonzero"/></clipPath><clipPath id="id2"><path d="M 37.941406 105 L 185 105 L 185 203 L 37.941406 203 Z M 37.941406 105 " clip-rule="nonzero"/></clipPath><clipPath id="id3"><path d="M 189 38.761719 L 337.039062 38.761719 L 337.039062 137 L 189 137 Z M 189 38.761719 " clip-rule="nonzero"/></clipPath><clipPath id="id4"><path d="M 174.289062 105 L 322 105 L 322 203 L 174.289062 203 Z M 174.289062 105 " clip-rule="nonzero"/></clipPath></defs><g fill="#c88c24" fill-opacity="1"><g transform="translate(17.898779, 248.016831)"><g><path d="M 2.921875 -6 C 3.023438 -5.832031 3.109375 -5.65625 3.171875 -5.46875 C 3.234375 -5.289062 3.304688 -5.0625 3.390625 -4.78125 C 3.429688 -4.675781 3.460938 -4.5625 3.484375 -4.4375 C 3.835938 -3.289062 4.5 -2.40625 5.46875 -1.78125 C 6.445312 -1.164062 7.5625 -0.859375 8.8125 -0.859375 C 9.46875 -0.859375 10.109375 -0.972656 10.734375 -1.203125 C 11.359375 -1.441406 11.867188 -1.796875 12.265625 -2.265625 C 12.671875 -2.742188 12.875 -3.320312 12.875 -4 C 12.875 -4.582031 12.664062 -5.128906 12.25 -5.640625 C 11.84375 -6.148438 11.332031 -6.601562 10.71875 -7 C 10.101562 -7.40625 9.257812 -7.90625 8.1875 -8.5 C 6.925781 -9.195312 5.898438 -9.8125 5.109375 -10.34375 C 4.328125 -10.882812 3.660156 -11.523438 3.109375 -12.265625 C 2.566406 -13.015625 2.296875 -13.851562 2.296875 -14.78125 C 2.296875 -15.9375 2.617188 -16.890625 3.265625 -17.640625 C 3.921875 -18.390625 4.757812 -18.9375 5.78125 -19.28125 C 6.800781 -19.625 7.878906 -19.796875 9.015625 -19.796875 C 9.984375 -19.796875 10.953125 -19.675781 11.921875 -19.4375 C 12.898438 -19.207031 13.828125 -18.867188 14.703125 -18.421875 L 14.890625 -14.15625 L 13.96875 -14.15625 C 13.84375 -14.382812 13.703125 -14.75 13.546875 -15.25 L 13.40625 -15.6875 C 13.0625 -16.65625 12.472656 -17.390625 11.640625 -17.890625 C 10.816406 -18.398438 9.863281 -18.65625 8.78125 -18.65625 C 8.21875 -18.65625 7.648438 -18.5625 7.078125 -18.375 C 6.515625 -18.1875 6.039062 -17.894531 5.65625 -17.5 C 5.28125 -17.101562 5.09375 -16.617188 5.09375 -16.046875 C 5.09375 -15.503906 5.289062 -15 5.6875 -14.53125 C 6.082031 -14.0625 6.570312 -13.632812 7.15625 -13.25 C 7.75 -12.875 8.5625 -12.394531 9.59375 -11.8125 C 10.914062 -11.082031 11.988281 -10.4375 12.8125 -9.875 C 13.632812 -9.3125 14.332031 -8.628906 14.90625 -7.828125 C 15.488281 -7.035156 15.78125 -6.140625 15.78125 -5.140625 C 15.78125 -3.890625 15.4375 -2.847656 14.75 -2.015625 C 14.070312 -1.191406 13.1875 -0.582031 12.09375 -0.1875 C 11.007812 0.195312 9.851562 0.390625 8.625 0.390625 C 7.53125 0.390625 6.351562 0.253906 5.09375 -0.015625 C 3.832031 -0.296875 2.816406 -0.675781 2.046875 -1.15625 L 2.046875 -5.96875 Z M 2.921875 -6 "/></g></g></g><g fill="#c88c24" fill-opacity="1"><g transform="translate(41.425963, 248.016831)"><g><path d="M 7.59375 -3.875 C 7.59375 -3.125 7.660156 -2.566406 7.796875 -2.203125 C 7.929688 -1.847656 8.113281 -1.609375 8.34375 -1.484375 C 8.582031 -1.367188 8.957031 -1.265625 9.46875 -1.171875 C 10.050781 -1.078125 10.570312 -0.953125 11.03125 -0.796875 L 11 0 L 1.078125 0 L 1.078125 -0.78125 C 1.359375 -0.90625 1.613281 -0.992188 1.84375 -1.046875 C 2.082031 -1.109375 2.382812 -1.164062 2.75 -1.21875 C 3.195312 -1.28125 3.523438 -1.367188 3.734375 -1.484375 C 3.941406 -1.597656 4.101562 -1.851562 4.21875 -2.25 C 4.332031 -2.644531 4.390625 -3.28125 4.390625 -4.15625 L 4.390625 -15.375 C 4.390625 -16.1875 4.316406 -16.785156 4.171875 -17.171875 C 4.035156 -17.566406 3.851562 -17.816406 3.625 -17.921875 C 3.40625 -18.035156 3.078125 -18.117188 2.640625 -18.171875 C 2.285156 -18.234375 1.988281 -18.289062 1.75 -18.34375 C 1.519531 -18.40625 1.273438 -18.515625 1.015625 -18.671875 L 1.046875 -19.4375 L 10.9375 -19.4375 L 10.96875 -18.65625 C 10.757812 -18.570312 10.460938 -18.488281 10.078125 -18.40625 C 9.523438 -18.257812 9.082031 -18.113281 8.75 -17.96875 C 8.425781 -17.832031 8.148438 -17.617188 7.921875 -17.328125 C 7.703125 -17.035156 7.59375 -16.632812 7.59375 -16.125 Z M 7.59375 -3.875 "/></g></g></g><g fill="#c88c24" fill-opacity="1"><g transform="translate(59.581066, 248.016831)"><g><path d="M 4.359375 -15.078125 C 4.359375 -15.660156 4.304688 -16.257812 4.203125 -16.875 C 4.148438 -17.175781 4.003906 -17.421875 3.765625 -17.609375 C 3.523438 -17.804688 3.25 -17.960938 2.9375 -18.078125 C 2.632812 -18.191406 2.25 -18.3125 1.78125 -18.4375 C 1.414062 -18.539062 1.160156 -18.617188 1.015625 -18.671875 L 1.046875 -19.4375 L 9.875 -19.4375 C 12.363281 -19.4375 14.550781 -19.109375 16.4375 -18.453125 C 18.332031 -17.804688 19.828125 -16.769531 20.921875 -15.34375 C 22.015625 -13.914062 22.5625 -12.070312 22.5625 -9.8125 C 22.5625 -8.082031 22.144531 -6.46875 21.3125 -4.96875 C 20.488281 -3.476562 19.257812 -2.273438 17.625 -1.359375 C 16 -0.453125 14.050781 0 11.78125 0 L 1.046875 0 L 1.015625 -0.78125 L 1.8125 -0.984375 C 2.363281 -1.109375 2.804688 -1.234375 3.140625 -1.359375 C 3.484375 -1.492188 3.769531 -1.710938 4 -2.015625 C 4.238281 -2.328125 4.359375 -2.742188 4.359375 -3.265625 Z M 7.5625 -4.046875 C 7.5625 -3.179688 7.726562 -2.5 8.0625 -2 C 8.394531 -1.5 8.96875 -1.226562 9.78125 -1.1875 C 10.332031 -1.164062 10.898438 -1.15625 11.484375 -1.15625 C 13.117188 -1.15625 14.503906 -1.535156 15.640625 -2.296875 C 16.773438 -3.054688 17.617188 -4.039062 18.171875 -5.25 C 18.734375 -6.46875 19.015625 -7.75 19.015625 -9.09375 C 19.015625 -10.875 18.695312 -12.453125 18.0625 -13.828125 C 17.425781 -15.203125 16.4375 -16.285156 15.09375 -17.078125 C 13.757812 -17.878906 12.085938 -18.28125 10.078125 -18.28125 L 7.5625 -18.28125 Z M 7.5625 -4.046875 "/></g></g></g><g fill="#c88c24" fill-opacity="1"><g transform="translate(89.629353, 248.016831)"><g><path d="M 4.359375 -15.078125 C 4.359375 -15.660156 4.304688 -16.257812 4.203125 -16.875 C 4.148438 -17.175781 4.003906 -17.421875 3.765625 -17.609375 C 3.523438 -17.804688 3.25 -17.960938 2.9375 -18.078125 C 2.632812 -18.191406 2.25 -18.3125 1.78125 -18.4375 C 1.414062 -18.539062 1.160156 -18.617188 1.015625 -18.671875 L 1.046875 -19.4375 L 9.875 -19.4375 C 12.363281 -19.4375 14.550781 -19.109375 16.4375 -18.453125 C 18.332031 -17.804688 19.828125 -16.769531 20.921875 -15.34375 C 22.015625 -13.914062 22.5625 -12.070312 22.5625 -9.8125 C 22.5625 -8.082031 22.144531 -6.46875 21.3125 -4.96875 C 20.488281 -3.476562 19.257812 -2.273438 17.625 -1.359375 C 16 -0.453125 14.050781 0 11.78125 0 L 1.046875 0 L 1.015625 -0.78125 L 1.8125 -0.984375 C 2.363281 -1.109375 2.804688 -1.234375 3.140625 -1.359375 C 3.484375 -1.492188 3.769531 -1.710938 4 -2.015625 C 4.238281 -2.328125 4.359375 -2.742188 4.359375 -3.265625 Z M 7.5625 -4.046875 C 7.5625 -3.179688 7.726562 -2.5 8.0625 -2 C 8.394531 -1.5 8.96875 -1.226562 9.78125 -1.1875 C 10.332031 -1.164062 10.898438 -1.15625 11.484375 -1.15625 C 13.117188 -1.15625 14.503906 -1.535156 15.640625 -2.296875 C 16.773438 -3.054688 17.617188 -4.039062 18.171875 -5.25 C 18.734375 -6.46875 19.015625 -7.75 19.015625 -9.09375 C 19.015625 -10.875 18.695312 -12.453125 18.0625 -13.828125 C 17.425781 -15.203125 16.4375 -16.285156 15.09375 -17.078125 C 13.757812 -17.878906 12.085938 -18.28125 10.078125 -18.28125 L 7.5625 -18.28125 Z M 7.5625 -4.046875 "/></g></g></g><g fill="#c88c24" fill-opacity="1"><g transform="translate(119.67764, 248.016831)"><g><path d="M 7.390625 -3.8125 C 7.390625 -3.070312 7.453125 -2.523438 7.578125 -2.171875 C 7.710938 -1.828125 7.890625 -1.597656 8.109375 -1.484375 C 8.335938 -1.378906 8.679688 -1.28125 9.140625 -1.1875 C 9.742188 -1.09375 10.265625 -0.957031 10.703125 -0.78125 L 10.671875 0 L 1.0625 0 C 1.050781 -0.0820312 1.039062 -0.1875 1.03125 -0.3125 C 1.019531 -0.4375 1.015625 -0.59375 1.015625 -0.78125 C 1.296875 -0.894531 1.550781 -0.984375 1.78125 -1.046875 C 2.019531 -1.109375 2.289062 -1.171875 2.59375 -1.234375 C 3.039062 -1.328125 3.363281 -1.429688 3.5625 -1.546875 C 3.757812 -1.671875 3.910156 -1.910156 4.015625 -2.265625 C 4.117188 -2.617188 4.171875 -3.179688 4.171875 -3.953125 L 4.171875 -15.484375 C 4.171875 -16.210938 4.113281 -16.753906 4 -17.109375 C 3.882812 -17.460938 3.710938 -17.703125 3.484375 -17.828125 C 3.265625 -17.953125 2.929688 -18.070312 2.484375 -18.1875 C 2.265625 -18.238281 2.023438 -18.300781 1.765625 -18.375 C 1.515625 -18.457031 1.269531 -18.554688 1.03125 -18.671875 L 1.0625 -19.4375 L 10.65625 -19.4375 L 10.6875 -18.65625 C 10.238281 -18.457031 9.722656 -18.296875 9.140625 -18.171875 C 8.671875 -18.078125 8.320312 -17.96875 8.09375 -17.84375 C 7.875 -17.71875 7.703125 -17.472656 7.578125 -17.109375 C 7.453125 -16.753906 7.390625 -16.207031 7.390625 -15.46875 L 7.390625 -10.625 L 18.046875 -10.625 L 18.046875 -15.625 C 18.046875 -16.300781 17.984375 -16.800781 17.859375 -17.125 C 17.742188 -17.457031 17.582031 -17.6875 17.375 -17.8125 C 17.164062 -17.9375 16.84375 -18.054688 16.40625 -18.171875 C 15.863281 -18.316406 15.398438 -18.484375 15.015625 -18.671875 L 15.046875 -19.4375 L 24.40625 -19.4375 L 24.421875 -18.65625 C 23.984375 -18.507812 23.5625 -18.382812 23.15625 -18.28125 C 22.613281 -18.132812 22.222656 -17.988281 21.984375 -17.84375 C 21.742188 -17.707031 21.5625 -17.453125 21.4375 -17.078125 C 21.3125 -16.710938 21.25 -16.144531 21.25 -15.375 L 21.25 -3.984375 C 21.25 -3.191406 21.300781 -2.613281 21.40625 -2.25 C 21.519531 -1.882812 21.6875 -1.640625 21.90625 -1.515625 C 22.132812 -1.390625 22.507812 -1.269531 23.03125 -1.15625 C 23.601562 -1.03125 24.066406 -0.90625 24.421875 -0.78125 L 24.421875 0 L 15.046875 0 L 15.015625 -0.78125 C 15.265625 -0.914062 15.488281 -1.007812 15.6875 -1.0625 C 15.894531 -1.125 16.171875 -1.191406 16.515625 -1.265625 C 16.910156 -1.335938 17.207031 -1.425781 17.40625 -1.53125 C 17.601562 -1.644531 17.757812 -1.867188 17.875 -2.203125 C 17.988281 -2.535156 18.046875 -3.054688 18.046875 -3.765625 L 18.046875 -9.328125 L 7.390625 -9.328125 Z M 7.390625 -3.8125 "/></g></g></g><g fill="#c88c24" fill-opacity="1"><g transform="translate(151.233094, 248.016831)"><g><path d="M 5.90625 -7.9375 L 5.625 -7.21875 C 5.175781 -6.0625 4.820312 -5.101562 4.5625 -4.34375 C 4.300781 -3.59375 4.171875 -3.015625 4.171875 -2.609375 C 4.171875 -2.253906 4.300781 -1.960938 4.5625 -1.734375 C 4.832031 -1.503906 5.140625 -1.332031 5.484375 -1.21875 C 5.828125 -1.113281 6.25 -1.007812 6.75 -0.90625 L 7.03125 -0.84375 L 7.03125 0 L -0.015625 0 L -0.015625 -0.78125 C 0.117188 -0.882812 0.257812 -0.972656 0.40625 -1.046875 C 0.550781 -1.117188 0.734375 -1.203125 0.953125 -1.296875 C 1.304688 -1.429688 1.585938 -1.570312 1.796875 -1.71875 C 2.015625 -1.875 2.207031 -2.113281 2.375 -2.4375 C 2.46875 -2.632812 2.566406 -2.859375 2.671875 -3.109375 C 2.773438 -3.359375 2.84375 -3.523438 2.875 -3.609375 L 3.0625 -4.078125 L 8.640625 -18.375 C 8.679688 -18.476562 8.710938 -18.664062 8.734375 -18.9375 C 8.742188 -19.132812 8.757812 -19.296875 8.78125 -19.421875 C 8.800781 -19.546875 8.847656 -19.660156 8.921875 -19.765625 C 9.410156 -19.765625 9.832031 -19.710938 10.1875 -19.609375 C 10.539062 -19.503906 10.894531 -19.320312 11.25 -19.0625 L 18.109375 -2.625 C 18.234375 -2.3125 18.378906 -2.0625 18.546875 -1.875 C 18.710938 -1.695312 18.890625 -1.5625 19.078125 -1.46875 C 19.265625 -1.375 19.515625 -1.265625 19.828125 -1.140625 C 20.097656 -1.046875 20.382812 -0.925781 20.6875 -0.78125 L 20.65625 0 L 11.96875 0 L 11.9375 -0.78125 C 12.40625 -0.914062 12.804688 -1.050781 13.140625 -1.1875 C 13.472656 -1.332031 13.773438 -1.53125 14.046875 -1.78125 C 14.316406 -2.03125 14.453125 -2.332031 14.453125 -2.6875 C 14.453125 -3.082031 13.953125 -4.5625 12.953125 -7.125 C 12.890625 -7.269531 12.832031 -7.410156 12.78125 -7.546875 C 12.726562 -7.691406 12.679688 -7.820312 12.640625 -7.9375 Z M 9.140625 -16.59375 L 6.421875 -9.25 L 12.09375 -9.25 Z M 9.140625 -16.59375 "/></g></g></g><g fill="#c88c24" fill-opacity="1"><g transform="translate(177.879057, 248.016831)"><g><path d="M 4.8125 -16.28125 C 4.5625 -16.695312 4.296875 -17.03125 4.015625 -17.28125 C 3.734375 -17.53125 3.453125 -17.71875 3.171875 -17.84375 C 2.898438 -17.976562 2.53125 -18.125 2.0625 -18.28125 C 1.613281 -18.425781 1.265625 -18.550781 1.015625 -18.65625 L 1.015625 -19.4375 L 6.21875 -19.4375 L 20.265625 -4.90625 L 20.265625 -14.296875 C 20.265625 -15.242188 20.128906 -16.101562 19.859375 -16.875 C 19.753906 -17.195312 19.601562 -17.445312 19.40625 -17.625 C 19.21875 -17.800781 19.015625 -17.925781 18.796875 -18 C 18.578125 -18.082031 18.285156 -18.171875 17.921875 -18.265625 C 17.859375 -18.285156 17.707031 -18.328125 17.46875 -18.390625 C 17.226562 -18.453125 17.003906 -18.535156 16.796875 -18.640625 C 16.796875 -18.898438 16.8125 -19.164062 16.84375 -19.4375 L 24.71875 -19.4375 L 24.71875 -18.625 C 24.4375 -18.5 24.144531 -18.375 23.84375 -18.25 C 23.113281 -17.925781 22.609375 -17.660156 22.328125 -17.453125 C 22.054688 -17.242188 21.863281 -16.914062 21.75 -16.46875 C 21.632812 -16.03125 21.570312 -15.3125 21.5625 -14.3125 C 21.5625 -13.800781 21.550781 -13.050781 21.53125 -12.0625 C 21.519531 -11.300781 21.507812 -10.351562 21.5 -9.21875 C 21.488281 -8.09375 21.484375 -6.773438 21.484375 -5.265625 C 21.484375 -4.609375 21.546875 -3.632812 21.671875 -2.34375 C 21.765625 -1.25 21.816406 -0.421875 21.828125 0.140625 C 21.640625 0.203125 21.394531 0.234375 21.09375 0.234375 C 20.78125 0.234375 20.5 0.203125 20.25 0.140625 C 19.53125 -0.734375 18.710938 -1.664062 17.796875 -2.65625 L 6.015625 -15.0625 L 6.015625 -4.578125 C 6.015625 -3.910156 6.097656 -3.238281 6.265625 -2.5625 C 6.347656 -2.226562 6.492188 -1.96875 6.703125 -1.78125 C 6.910156 -1.59375 7.132812 -1.457031 7.375 -1.375 C 7.625 -1.300781 7.957031 -1.226562 8.375 -1.15625 C 8.945312 -1.0625 9.375 -0.941406 9.65625 -0.796875 C 9.65625 -0.535156 9.640625 -0.269531 9.609375 0 L 1.1875 0 C 1.164062 -0.175781 1.15625 -0.445312 1.15625 -0.8125 L 1.84375 -0.984375 C 2.488281 -1.140625 2.992188 -1.289062 3.359375 -1.4375 C 3.734375 -1.59375 4.054688 -1.835938 4.328125 -2.171875 C 4.609375 -2.515625 4.769531 -2.976562 4.8125 -3.5625 Z M 4.8125 -16.28125 "/></g></g></g><g fill="#c88c24" fill-opacity="1"><g transform="translate(209.718032, 248.016831)"><g><path d="M 6.5625 -18.328125 C 5.644531 -18.328125 4.921875 -18.285156 4.390625 -18.203125 C 4.035156 -18.148438 3.71875 -18.007812 3.4375 -17.78125 C 3.15625 -17.550781 2.910156 -17.289062 2.703125 -17 C 2.503906 -16.71875 2.257812 -16.332031 1.96875 -15.84375 C 1.664062 -15.320312 1.40625 -14.925781 1.1875 -14.65625 L 0.5 -14.65625 L 0.875 -19.515625 C 2.519531 -19.453125 4.640625 -19.421875 7.234375 -19.421875 L 13.0625 -19.4375 L 15.015625 -19.4375 C 17.023438 -19.4375 18.648438 -19.472656 19.890625 -19.546875 L 20.375 -14.640625 L 19.65625 -14.640625 C 19.507812 -14.816406 19.351562 -15.039062 19.1875 -15.3125 C 19.03125 -15.59375 18.925781 -15.769531 18.875 -15.84375 C 18.476562 -16.550781 18.109375 -17.101562 17.765625 -17.5 C 17.421875 -17.90625 17.015625 -18.140625 16.546875 -18.203125 C 16.210938 -18.253906 15.875 -18.285156 15.53125 -18.296875 C 15.1875 -18.316406 14.753906 -18.328125 14.234375 -18.328125 L 11.953125 -18.328125 L 11.953125 -3.59375 C 11.953125 -2.832031 12.082031 -2.265625 12.34375 -1.890625 C 12.613281 -1.515625 12.960938 -1.257812 13.390625 -1.125 C 13.828125 -1 14.472656 -0.882812 15.328125 -0.78125 C 15.328125 -0.425781 15.316406 -0.164062 15.296875 0 L 5.421875 0 L 5.390625 -0.78125 C 5.554688 -0.832031 5.816406 -0.910156 6.171875 -1.015625 C 6.765625 -1.191406 7.226562 -1.359375 7.5625 -1.515625 C 7.90625 -1.679688 8.1875 -1.925781 8.40625 -2.25 C 8.632812 -2.582031 8.75 -3.03125 8.75 -3.59375 L 8.75 -18.328125 Z M 6.5625 -18.328125 "/></g></g></g><g fill="#c88c24" fill-opacity="1"><g transform="translate(236.647539, 248.016831)"><g/></g></g><g fill="#c88c24" fill-opacity="1"><g transform="translate(249.922991, 248.016831)"><g><path d="M 2.921875 -6 C 3.023438 -5.832031 3.109375 -5.65625 3.171875 -5.46875 C 3.234375 -5.289062 3.304688 -5.0625 3.390625 -4.78125 C 3.429688 -4.675781 3.460938 -4.5625 3.484375 -4.4375 C 3.835938 -3.289062 4.5 -2.40625 5.46875 -1.78125 C 6.445312 -1.164062 7.5625 -0.859375 8.8125 -0.859375 C 9.46875 -0.859375 10.109375 -0.972656 10.734375 -1.203125 C 11.359375 -1.441406 11.867188 -1.796875 12.265625 -2.265625 C 12.671875 -2.742188 12.875 -3.320312 12.875 -4 C 12.875 -4.582031 12.664062 -5.128906 12.25 -5.640625 C 11.84375 -6.148438 11.332031 -6.601562 10.71875 -7 C 10.101562 -7.40625 9.257812 -7.90625 8.1875 -8.5 C 6.925781 -9.195312 5.898438 -9.8125 5.109375 -10.34375 C 4.328125 -10.882812 3.660156 -11.523438 3.109375 -12.265625 C 2.566406 -13.015625 2.296875 -13.851562 2.296875 -14.78125 C 2.296875 -15.9375 2.617188 -16.890625 3.265625 -17.640625 C 3.921875 -18.390625 4.757812 -18.9375 5.78125 -19.28125 C 6.800781 -19.625 7.878906 -19.796875 9.015625 -19.796875 C 9.984375 -19.796875 10.953125 -19.675781 11.921875 -19.4375 C 12.898438 -19.207031 13.828125 -18.867188 14.703125 -18.421875 L 14.890625 -14.15625 L 13.96875 -14.15625 C 13.84375 -14.382812 13.703125 -14.75 13.546875 -15.25 L 13.40625 -15.6875 C 13.0625 -16.65625 12.472656 -17.390625 11.640625 -17.890625 C 10.816406 -18.398438 9.863281 -18.65625 8.78125 -18.65625 C 8.21875 -18.65625 7.648438 -18.5625 7.078125 -18.375 C 6.515625 -18.1875 6.039062 -17.894531 5.65625 -17.5 C 5.28125 -17.101562 5.09375 -16.617188 5.09375 -16.046875 C 5.09375 -15.503906 5.289062 -15 5.6875 -14.53125 C 6.082031 -14.0625 6.570312 -13.632812 7.15625 -13.25 C 7.75 -12.875 8.5625 -12.394531 9.59375 -11.8125 C 10.914062 -11.082031 11.988281 -10.4375 12.8125 -9.875 C 13.632812 -9.3125 14.332031 -8.628906 14.90625 -7.828125 C 15.488281 -7.035156 15.78125 -6.140625 15.78125 -5.140625 C 15.78125 -3.890625 15.4375 -2.847656 14.75 -2.015625 C 14.070312 -1.191406 13.1875 -0.582031 12.09375 -0.1875 C 11.007812 0.195312 9.851562 0.390625 8.625 0.390625 C 7.53125 0.390625 6.351562 0.253906 5.09375 -0.015625 C 3.832031 -0.296875 2.816406 -0.675781 2.046875 -1.15625 L 2.046875 -5.96875 Z M 2.921875 -6 "/></g></g></g><g fill="#c88c24" fill-opacity="1"><g transform="translate(273.450181, 248.016831)"><g><path d="M 7.390625 -3.8125 C 7.390625 -3.070312 7.453125 -2.523438 7.578125 -2.171875 C 7.710938 -1.828125 7.890625 -1.597656 8.109375 -1.484375 C 8.335938 -1.378906 8.679688 -1.28125 9.140625 -1.1875 C 9.742188 -1.09375 10.265625 -0.957031 10.703125 -0.78125 L 10.671875 0 L 1.0625 0 C 1.050781 -0.0820312 1.039062 -0.1875 1.03125 -0.3125 C 1.019531 -0.4375 1.015625 -0.59375 1.015625 -0.78125 C 1.296875 -0.894531 1.550781 -0.984375 1.78125 -1.046875 C 2.019531 -1.109375 2.289062 -1.171875 2.59375 -1.234375 C 3.039062 -1.328125 3.363281 -1.429688 3.5625 -1.546875 C 3.757812 -1.671875 3.910156 -1.910156 4.015625 -2.265625 C 4.117188 -2.617188 4.171875 -3.179688 4.171875 -3.953125 L 4.171875 -15.484375 C 4.171875 -16.210938 4.113281 -16.753906 4 -17.109375 C 3.882812 -17.460938 3.710938 -17.703125 3.484375 -17.828125 C 3.265625 -17.953125 2.929688 -18.070312 2.484375 -18.1875 C 2.265625 -18.238281 2.023438 -18.300781 1.765625 -18.375 C 1.515625 -18.457031 1.269531 -18.554688 1.03125 -18.671875 L 1.0625 -19.4375 L 10.65625 -19.4375 L 10.6875 -18.65625 C 10.238281 -18.457031 9.722656 -18.296875 9.140625 -18.171875 C 8.671875 -18.078125 8.320312 -17.96875 8.09375 -17.84375 C 7.875 -17.71875 7.703125 -17.472656 7.578125 -17.109375 C 7.453125 -16.753906 7.390625 -16.207031 7.390625 -15.46875 L 7.390625 -10.625 L 18.046875 -10.625 L 18.046875 -15.625 C 18.046875 -16.300781 17.984375 -16.800781 17.859375 -17.125 C 17.742188 -17.457031 17.582031 -17.6875 17.375 -17.8125 C 17.164062 -17.9375 16.84375 -18.054688 16.40625 -18.171875 C 15.863281 -18.316406 15.398438 -18.484375 15.015625 -18.671875 L 15.046875 -19.4375 L 24.40625 -19.4375 L 24.421875 -18.65625 C 23.984375 -18.507812 23.5625 -18.382812 23.15625 -18.28125 C 22.613281 -18.132812 22.222656 -17.988281 21.984375 -17.84375 C 21.742188 -17.707031 21.5625 -17.453125 21.4375 -17.078125 C 21.3125 -16.710938 21.25 -16.144531 21.25 -15.375 L 21.25 -3.984375 C 21.25 -3.191406 21.300781 -2.613281 21.40625 -2.25 C 21.519531 -1.882812 21.6875 -1.640625 21.90625 -1.515625 C 22.132812 -1.390625 22.507812 -1.269531 23.03125 -1.15625 C 23.601562 -1.03125 24.066406 -0.90625 24.421875 -0.78125 L 24.421875 0 L 15.046875 0 L 15.015625 -0.78125 C 15.265625 -0.914062 15.488281 -1.007812 15.6875 -1.0625 C 15.894531 -1.125 16.171875 -1.191406 16.515625 -1.265625 C 16.910156 -1.335938 17.207031 -1.425781 17.40625 -1.53125 C 17.601562 -1.644531 17.757812 -1.867188 17.875 -2.203125 C 17.988281 -2.535156 18.046875 -3.054688 18.046875 -3.765625 L 18.046875 -9.328125 L 7.390625 -9.328125 Z M 7.390625 -3.8125 "/></g></g></g><g fill="#c88c24" fill-opacity="1"><g transform="translate(305.005635, 248.016831)"><g><path d="M 5.90625 -7.9375 L 5.625 -7.21875 C 5.175781 -6.0625 4.820312 -5.101562 4.5625 -4.34375 C 4.300781 -3.59375 4.171875 -3.015625 4.171875 -2.609375 C 4.171875 -2.253906 4.300781 -1.960938 4.5625 -1.734375 C 4.832031 -1.503906 5.140625 -1.332031 5.484375 -1.21875 C 5.828125 -1.113281 6.25 -1.007812 6.75 -0.90625 L 7.03125 -0.84375 L 7.03125 0 L -0.015625 0 L -0.015625 -0.78125 C 0.117188 -0.882812 0.257812 -0.972656 0.40625 -1.046875 C 0.550781 -1.117188 0.734375 -1.203125 0.953125 -1.296875 C 1.304688 -1.429688 1.585938 -1.570312 1.796875 -1.71875 C 2.015625 -1.875 2.207031 -2.113281 2.375 -2.4375 C 2.46875 -2.632812 2.566406 -2.859375 2.671875 -3.109375 C 2.773438 -3.359375 2.84375 -3.523438 2.875 -3.609375 L 3.0625 -4.078125 L 8.640625 -18.375 C 8.679688 -18.476562 8.710938 -18.664062 8.734375 -18.9375 C 8.742188 -19.132812 8.757812 -19.296875 8.78125 -19.421875 C 8.800781 -19.546875 8.847656 -19.660156 8.921875 -19.765625 C 9.410156 -19.765625 9.832031 -19.710938 10.1875 -19.609375 C 10.539062 -19.503906 10.894531 -19.320312 11.25 -19.0625 L 18.109375 -2.625 C 18.234375 -2.3125 18.378906 -2.0625 18.546875 -1.875 C 18.710938 -1.695312 18.890625 -1.5625 19.078125 -1.46875 C 19.265625 -1.375 19.515625 -1.265625 19.828125 -1.140625 C 20.097656 -1.046875 20.382812 -0.925781 20.6875 -0.78125 L 20.65625 0 L 11.96875 0 L 11.9375 -0.78125 C 12.40625 -0.914062 12.804688 -1.050781 13.140625 -1.1875 C 13.472656 -1.332031 13.773438 -1.53125 14.046875 -1.78125 C 14.316406 -2.03125 14.453125 -2.332031 14.453125 -2.6875 C 14.453125 -3.082031 13.953125 -4.5625 12.953125 -7.125 C 12.890625 -7.269531 12.832031 -7.410156 12.78125 -7.546875 C 12.726562 -7.691406 12.679688 -7.820312 12.640625 -7.9375 Z M 9.140625 -16.59375 L 6.421875 -9.25 L 12.09375 -9.25 Z M 9.140625 -16.59375 "/></g></g></g><g fill="#c88c24" fill-opacity="1"><g transform="translate(331.651598, 248.016831)"><g><path d="M 7.390625 -3.8125 C 7.390625 -3.070312 7.453125 -2.523438 7.578125 -2.171875 C 7.710938 -1.828125 7.890625 -1.597656 8.109375 -1.484375 C 8.335938 -1.378906 8.679688 -1.28125 9.140625 -1.1875 C 9.742188 -1.09375 10.265625 -0.957031 10.703125 -0.78125 L 10.671875 0 L 1.0625 0 C 1.050781 -0.0820312 1.039062 -0.1875 1.03125 -0.3125 C 1.019531 -0.4375 1.015625 -0.59375 1.015625 -0.78125 C 1.296875 -0.894531 1.550781 -0.984375 1.78125 -1.046875 C 2.019531 -1.109375 2.289062 -1.171875 2.59375 -1.234375 C 3.039062 -1.328125 3.363281 -1.429688 3.5625 -1.546875 C 3.757812 -1.671875 3.910156 -1.910156 4.015625 -2.265625 C 4.117188 -2.617188 4.171875 -3.179688 4.171875 -3.953125 L 4.171875 -15.484375 C 4.171875 -16.210938 4.113281 -16.753906 4 -17.109375 C 3.882812 -17.460938 3.710938 -17.703125 3.484375 -17.828125 C 3.265625 -17.953125 2.929688 -18.070312 2.484375 -18.1875 C 2.265625 -18.238281 2.023438 -18.300781 1.765625 -18.375 C 1.515625 -18.457031 1.269531 -18.554688 1.03125 -18.671875 L 1.0625 -19.4375 L 10.65625 -19.4375 L 10.6875 -18.65625 C 10.238281 -18.457031 9.722656 -18.296875 9.140625 -18.171875 C 8.671875 -18.078125 8.320312 -17.96875 8.09375 -17.84375 C 7.875 -17.71875 7.703125 -17.472656 7.578125 -17.109375 C 7.453125 -16.753906 7.390625 -16.207031 7.390625 -15.46875 L 7.390625 -10.625 L 18.046875 -10.625 L 18.046875 -15.625 C 18.046875 -16.300781 17.984375 -16.800781 17.859375 -17.125 C 17.742188 -17.457031 17.582031 -17.6875 17.375 -17.8125 C 17.164062 -17.9375 16.84375 -18.054688 16.40625 -18.171875 C 15.863281 -18.316406 15.398438 -18.484375 15.015625 -18.671875 L 15.046875 -19.4375 L 24.40625 -19.4375 L 24.421875 -18.65625 C 23.984375 -18.507812 23.5625 -18.382812 23.15625 -18.28125 C 22.613281 -18.132812 22.222656 -17.988281 21.984375 -17.84375 C 21.742188 -17.707031 21.5625 -17.453125 21.4375 -17.078125 C 21.3125 -16.710938 21.25 -16.144531 21.25 -15.375 L 21.25 -3.984375 C 21.25 -3.191406 21.300781 -2.613281 21.40625 -2.25 C 21.519531 -1.882812 21.6875 -1.640625 21.90625 -1.515625 C 22.132812 -1.390625 22.507812 -1.269531 23.03125 -1.15625 C 23.601562 -1.03125 24.066406 -0.90625 24.421875 -0.78125 L 24.421875 0 L 15.046875 0 L 15.015625 -0.78125 C 15.265625 -0.914062 15.488281 -1.007812 15.6875 -1.0625 C 15.894531 -1.125 16.171875 -1.191406 16.515625 -1.265625 C 16.910156 -1.335938 17.207031 -1.425781 17.40625 -1.53125 C 17.601562 -1.644531 17.757812 -1.867188 17.875 -2.203125 C 17.988281 -2.535156 18.046875 -3.054688 18.046875 -3.765625 L 18.046875 -9.328125 L 7.390625 -9.328125 Z M 7.390625 -3.8125 "/></g></g></g><g clip-path="url(#id1)"><path fill="#c88c24" d="M 200.691406 38.886719 L 150.492188 88.886719 L 102.613281 136.5625 L 102.226562 136.5625 C 90.703125 136.5625 80.128906 132.585938 71.804688 125.902344 C 60.632812 116.964844 53.46875 103.171875 53.46875 87.722656 C 53.46875 74.246094 58.910156 62.039062 67.765625 53.171875 C 76.582031 44.339844 88.769531 38.886719 102.226562 38.886719 Z M 200.691406 38.886719 " fill-opacity="1" fill-rule="nonzero"/></g><g clip-path="url(#id2)"><path fill="#c88c24" d="M 184.882812 154.015625 C 184.882812 167.492188 179.4375 179.699219 170.585938 188.566406 C 161.769531 197.398438 149.578125 202.890625 136.089844 202.890625 L 37.941406 202.890625 L 88.140625 152.890625 L 136.019531 105.210938 L 136.160156 105.210938 C 147.679688 105.210938 158.253906 109.1875 166.582031 115.875 C 177.75 124.777344 184.882812 138.570312 184.882812 154.015625 Z M 184.882812 154.015625 " fill-opacity="1" fill-rule="nonzero"/></g><g clip-path="url(#id3)"><path fill="#c88c24" d="M 337.039062 38.886719 L 286.839844 88.886719 L 238.957031 136.5625 L 238.570312 136.5625 C 227.050781 136.5625 216.476562 132.585938 208.152344 125.902344 C 196.980469 116.964844 189.8125 103.171875 189.8125 87.722656 C 189.8125 74.246094 195.257812 62.039062 204.109375 53.171875 C 212.929688 44.339844 225.117188 38.886719 238.570312 38.886719 Z M 337.039062 38.886719 " fill-opacity="1" fill-rule="nonzero"/></g><g clip-path="url(#id4)"><path fill="#c88c24" d="M 321.230469 154.015625 C 321.230469 167.492188 315.785156 179.699219 306.933594 188.566406 C 298.113281 197.398438 285.925781 202.890625 272.4375 202.890625 L 174.289062 202.890625 L 224.484375 152.890625 L 272.367188 105.210938 L 272.507812 105.210938 C 284.027344 105.210938 294.601562 109.1875 302.925781 115.875 C 314.097656 124.777344 321.230469 138.570312 321.230469 154.015625 Z M 321.230469 154.015625 " fill-opacity="1" fill-rule="nonzero"/></g></svg>